<svg xmlns="http://www.w3.org/2000/svg" xmlns:xlink="http://www.w3.org/1999/xlink" viewBox="0 0 446.45 186.53"><defs><linearGradient id="a" x1="67.56" x2="42.78" y1="70.79" y2="166.79" gradientTransform="rotate(-7.48 89.337 94.025)" gradientUnits="userSpaceOnUse"><stop offset="0" stop-color="#ff4060"/><stop offset="1" stop-color="#a00c4b"/></linearGradient><linearGradient id="c" x1="260.7" x2="260.7" y1="164.93" y2="103.68" gradientUnits="userSpaceOnUse"><stop offset="0" stop-color="#1a1a1a"/><stop offset="1" stop-color="#4d4d4d"/></linearGradient><linearGradient xlink:href="#a" id="d" x1="55.33" x2="28.15" y1="30.99" y2="112.82"/><linearGradient id="b" x1="40.95" x2="41.49" y1="57.05" y2="48.39" gradientUnits="userSpaceOnUse"><stop offset="0" stop-color="#ff4060" stop-opacity="0"/><stop offset="1" stop-color="#fff"/></linearGradient><linearGradient xlink:href="#b" id="e" x1="21.36" x2="28.11" y1="46.54" y2="39.84"/><linearGradient xlink:href="#b" id="f" x1="84.44" x2="75.29" y1="44.22" y2="23.5"/></defs><g data-name="Layer 2" style="isolation:isolate"><path d="M80.73 71.18S30 88.83 46.63 146.38c0 0-.58 3.51 18.69 21.4 0 0-39.43-63.33 15.41-96.6Z" style="fill:url(#a)"/><path d="M76.27 86.62a136.61 136.61 0 0 1 20.2-1.53c13.65 0 23.37 3.17 29.81 9.17s10.37 14.53 10.37 26.43-3.71 21.84-10.59 28.61-18.23 10.59-32.54 10.59a154.74 154.74 0 0 1-17.25-.89Zm9.5 65.08a59.57 59.57 0 0 0 9.61.55c20.31 0 31.34-11.36 31.34-31.23.11-17.37-9.72-28.39-29.81-28.39a53.7 53.7 0 0 0-11.14 1ZM159.37 91.53c.11 3.28-2.29 5.9-6.12 5.9a5.71 5.71 0 0 1-5.78-5.9 5.85 5.85 0 0 1 6-6 5.7 5.7 0 0 1 5.9 6Zm-10.7 67.7v-52.85h9.61v52.85ZM219.75 106.38c-.22 3.83-.43 8.08-.43 14.53v30.68c0 12.12-2.41 19.55-7.54 24.13-5.13 4.81-12.56 6.33-19.22 6.33-6.33 0-13.32-1.52-17.58-4.36l2.41-7.32a29.81 29.81 0 0 0 15.5 4.15c9.83 0 17-5.13 17-18.45v-5.9h-.21c-3 4.91-8.63 8.85-16.82 8.85-13.1 0-22.49-11.14-22.49-25.77 0-17.91 11.68-28.07 23.8-28.07 9.17 0 14.2 4.81 16.49 9.18h.22l.43-8Zm-9.93 20.86a13.6 13.6 0 0 0-.55-4.37c-1.75-5.57-6.44-10.15-13.43-10.15-9.17 0-15.72 7.75-15.72 20 0 10.37 5.24 19 15.61 19a14 14 0 0 0 13.32-9.83 16.59 16.59 0 0 0 .77-5.13ZM245.31 91.53c.11 3.28-2.3 5.9-6.12 5.9a5.72 5.72 0 0 1-5.79-5.9 5.86 5.86 0 0 1 6-6 5.71 5.71 0 0 1 5.91 6Zm-10.7 67.7v-52.85h9.61v52.85ZM260.16 120.69c0-5.46-.11-9.94-.44-14.31h8.41l.44 8.52h.32c2.95-5 7.87-9.72 16.6-9.72a15.62 15.62 0 0 1 15 10.59h.22a21.8 21.8 0 0 1 5.89-6.87 18 18 0 0 1 11.69-3.72c7 0 17.36 4.59 17.36 22.93v31.12h-9.39v-29.92c0-10.15-3.71-16.26-11.47-16.26-5.46 0-9.71 4-11.35 8.73a15.72 15.72 0 0 0-.77 4.8v32.65h-9.39v-31.66c0-8.41-3.71-14.52-11-14.52-6 0-10.37 4.8-11.9 9.6a13.4 13.4 0 0 0-.76 4.7v31.88h-9.39ZM380.49 159.23l-.76-6.66h-.33a19.69 19.69 0 0 1-16.16 7.86c-10.7 0-16.16-7.53-16.16-15.17 0-12.78 11.36-19.77 31.77-19.66v-1.09c0-4.37-1.2-12.23-12-12.23a26.33 26.33 0 0 0-13.75 3.93l-2.19-6.33a32.79 32.79 0 0 1 17.36-4.7c16.16 0 20.09 11 20.09 21.62v19.77a73.82 73.82 0 0 0 .88 12.66Zm-1.42-27c-10.48-.22-22.38 1.64-22.38 11.9 0 6.23 4.15 9.18 9.06 9.18a13.16 13.16 0 0 0 12.78-8.85 10.22 10.22 0 0 0 .54-3.06ZM408.34 106.38l7.53 11.36c2 3 3.61 5.68 5.35 8.63h.33c1.75-3.17 3.5-5.9 5.24-8.74l7.43-11.25h10.37l-18 25.56 18.57 27.29h-10.94l-7.75-11.9c-2.08-3.06-3.83-6-5.68-9.17h-.22c-1.75 3.17-3.6 6-5.57 9.17l-7.64 11.9h-10.59l18.78-27-17.91-25.88Z" style="fill:url(#c)"/><path d="M104.92 31c-.32-1.45-7.12-12.06-22.71-13.1-12.32-.9-20.79 9.04-21.55 15.62-.59 5.15 3.39 13.74 2.05 19.6a6.14 6.14 0 0 1-.63 1.79 2.1 2.1 0 0 1-.13.26 1.74 1.74 0 0 1-.11.18 3.54 3.54 0 0 1-.26.41 4.67 4.67 0 0 1-.35.46c-1.38 1.73-4 3.55-9 3.62 0 0 4.82-.77 7-4a26 26 0 0 0-10.4-8.06l-.17-.07c-.37-.15-.76-.28-1.14-.42l-1-.3-.8-.22-.8-.19a23.48 23.48 0 0 0-8-.31 18 18 0 0 0-10.68 5.91s2.31-5.29 9.45-7.12c-2.5-2.33-8.34-7.13-13.89-6.87 0 0 8.21-3.92 10.44-12.51S42.76 13 44.71 13.56s4.65 4.13 7.45 3.64a3.1 3.1 0 0 0 2.71-3.1 52.26 52.26 0 0 0 5.57-1.73C62 11.67 61.68 9 59.6 6S56.13-1 53.3.23a32 32 0 0 1-10.79 2.29c-3.59.1-5.2 1.18-8.7 3.88S20.73 15 14.28 21.79 4.46 32.42 1.47 34.31s-.63 3.7.21 6.33S1.45 50.26 5.07 56a60 60 0 0 0 7.76 9.54 5.13 5.13 0 0 1 .39-2.15c0 2.34 1.94 5.63 2.54 6.6.32.51.68 1 1.08 1.57.92-4.23 3-5.59 3-5.59-1.47 2.03-1.84 4.84-1.66 7.57a37.22 37.22 0 0 0 1.14 6.32c.34 1.17.67 2.13.9 2.73a22.62 22.62 0 0 0 1.32 2.88 12.21 12.21 0 0 1 5.7-5.47 12.72 12.72 0 0 0-5.17 7.72 26.8 26.8 0 0 0-.51 6.67 31.74 31.74 0 0 0 1.19 6.66 23.62 23.62 0 0 0 3.59 6.95c6.15 8.18 15.1 30.56 16.34 33.69-1.77-4.63-18-51.48 41.32-73.95 0 0 4.06 4.63 6.85 2.15 2.42-2.16 1.21-3.74 3.71-4.44.88-.24.3-1.83.3-1.83s1.4-.08 1.24-1c-.12-.72-.21-3.33 1-3.37s2.66-.23 2.84-1-1.06-5.8-1.67-8.19a2.49 2.49 0 0 1 .54-2.25l2.27-2.58a2.07 2.07 0 0 0 .49-1.19l.5-7.49s3.16-4.15 2.85-5.55Z" style="fill:url(#d)"/><path d="M26.08 54.19s7-7.66 16.85-5.88S56.07 56 56.07 56s-14.69 12.87-29.99-1.81Z" style="opacity:.4;mix-blend-mode:hard-light;fill:url(#b)"/><path d="M25 51.21a10.83 10.83 0 0 1 7.68-6.66s-6.11-5.67-13.55-4.94c.04 0-8.13 4.85 5.87 11.6Z" style="opacity:.4;mix-blend-mode:hard-light;fill:url(#e)"/><path d="M65.58 51.21s-1-7.48-2.13-13.46 4.15-14.66 14.3-16.85S99 25.59 99.94 29.75 74.76 65.51 65.58 51.21Z" style="opacity:.4;mix-blend-mode:hard-light;fill:url(#f)"/></g></svg>